<?xml version="1.0" encoding="UTF-8" standalone="no"?>
<!-- Created with Inkscape (http://www.inkscape.org/) -->

<svg
   width="119.4612mm"
   height="87.807205mm"
   viewBox="0 0 119.4612 87.807205"
   version="1.1"
   id="svg5"
   inkscape:version="1.1.1 (c3084ef, 2021-09-22)"
   sodipodi:docname="bb.svg"
   xmlns:inkscape="http://www.inkscape.org/namespaces/inkscape"
   xmlns:sodipodi="http://sodipodi.sourceforge.net/DTD/sodipodi-0.dtd"
   xmlns="http://www.w3.org/2000/svg"
   xmlns:svg="http://www.w3.org/2000/svg">
  <sodipodi:namedview
     id="namedview7"
     pagecolor="#ffffff"
     bordercolor="#666666"
     borderopacity="1.0"
     inkscape:pageshadow="2"
     inkscape:pageopacity="0.0"
     inkscape:pagecheckerboard="0"
     inkscape:document-units="mm"
     showgrid="false"
     inkscape:zoom="0.77771465"
     inkscape:cx="190.30116"
     inkscape:cy="202.51644"
     inkscape:window-width="1369"
     inkscape:window-height="789"
     inkscape:window-x="0"
     inkscape:window-y="25"
     inkscape:window-maximized="0"
     inkscape:current-layer="layer1" />
  <defs
     id="defs2" />
  <g
     inkscape:label="Layer 1"
     inkscape:groupmode="layer"
     id="layer1"
     transform="translate(-40.054158,-94.125238)">
    <path
       style="fill:#e9afaf;stroke:#000000;stroke-width:0.5;stroke-linecap:butt;stroke-linejoin:miter;stroke-miterlimit:4;stroke-dasharray:none;stroke-opacity:1"
       d="m 41.505153,139.14433 c 0.39262,-4.07902 -0.887688,-8.66738 0.680413,-12.58763 2.593808,-6.48452 8.334891,-11.31941 12.927835,-16.3299 2.824025,-3.08075 5.266968,-6.62779 8.164949,-9.52577 3.089521,-3.089523 8.649026,-4.036654 12.587629,-5.443298 2.924733,-1.044549 9.356166,-1.166281 12.247422,-0.340207 0.830413,0.23726 1.562119,0.747509 2.381443,1.020617 1.906371,0.635458 3.86729,1.095912 5.783506,1.701033 4.96185,1.566898 9.99437,2.908635 14.96907,4.422685 1.37229,0.41765 2.69324,1.00359 4.08248,1.36082 2.58507,0.66473 5.22928,1.07812 7.82474,1.70103 7.56374,1.8153 14.85906,4.01399 22.1134,6.80412 2.99162,1.15063 14.83499,7.00027 13.94846,10.5464 -0.81357,3.25426 -2.68156,6.28349 -3.40207,9.52577 -0.35718,1.60734 0.19257,3.50477 -0.3402,5.10309 -0.36949,1.10846 -0.20409,2.29063 -0.68041,3.40206 -0.83745,1.95404 -2.00286,4.49131 -3.40207,6.12371 -0.26609,0.31045 -0.70651,0.41866 -1.02062,0.68042 -2.91567,2.42973 -6.03588,3.60742 -9.52577,5.10309 -4.8036,2.05869 -9.56159,4.23942 -14.28866,6.46392 -3.07483,1.44698 -6.18449,2.82836 -9.18557,4.42268 -0.64125,0.34067 -1.08842,0.97098 -1.70103,1.36082 -0.64179,0.40842 -1.42221,0.57846 -2.04123,1.02062 -0.98094,0.70067 -1.76407,1.64918 -2.72165,2.38144 -1.94877,1.49024 -3.99369,2.86532 -6.12371,4.08248 -5.738515,3.27915 -12.537114,6.19613 -19.051552,7.82474 -0.886979,0.22175 -1.825128,0.1609 -2.72165,0.34021 -2.18549,0.43709 -2.098561,0.80018 -4.082473,1.02062 -8.966568,0.99628 -18.44852,-0.0113 -26.536083,-4.42269 -4.281035,-2.33511 -5.689217,-7.12321 -7.484536,-11.2268 -0.879687,-2.01071 -3.587036,-4.82237 -4.082473,-6.80412 -0.496443,-1.98577 0.28843,-4.4449 0,-6.46392 -0.02267,-0.15876 -0.268486,-0.19676 -0.340207,-0.34021 -0.551759,-1.10351 0.340207,-6.28015 0.340207,-7.48453 0,-0.20761 -0.132559,-1.22827 0,-1.36083 0.08019,-0.0802 0.260016,0.0802 0.340206,0 0.192675,-0.19267 0.136496,-3.26764 0.340204,-4.08247 z"
       id="path857" />
    <path
       style="fill:#782121;stroke:#000000;stroke-width:0.5;stroke-linecap:butt;stroke-linejoin:miter;stroke-miterlimit:4;stroke-dasharray:none;stroke-opacity:1"
       d="m 79.948452,121.79381 c -1.530938,0.28318 -3.236355,-0.3053 -4.762887,0 -7.083575,1.41672 -13.982117,5.80595 -20.072164,9.86598 -3.829672,2.55312 -7.489439,5.79331 -9.525773,9.86598 -0.143443,0.28689 -0.536969,0.39353 -0.680413,0.68041 -0.444127,0.88826 0.08764,2.20618 -0.340206,3.06186 -0.425448,0.8509 -0.772515,3.65016 0,4.42268 0.08019,0.0802 0.260019,-0.0802 0.340206,0 0.197184,0.19718 0.48323,1.16364 0.680413,1.36082 0.08019,0.0802 0.26002,-0.0802 0.340207,0 0.08019,0.0802 -0.08019,0.26002 0,0.34021 0.08019,0.0802 0.260019,-0.0802 0.340206,0 0.08019,0.0802 -0.05071,0.23878 0,0.34021 0.29722,0.59444 2.103017,1.73192 2.72165,2.04123 0.226804,0.11341 0.113401,0.56701 0.340204,0.68042 0.202861,0.10143 0.465249,-0.0717 0.680413,0 0.327742,0.10924 0.352671,0.57116 0.680413,0.68041 2.424139,0.80805 5.038363,1.90626 7.484536,2.72165 0.743662,0.24788 1.621557,0.15023 2.381443,0.3402 6.749719,1.68743 13.580925,2.38145 20.752578,2.38145 2.653657,0 -0.645496,-0.10759 2.041236,0.3402 4.16537,0.69423 11.008702,-0.23115 14.628866,-2.04123 1.429549,-0.71478 2.75578,-1.58543 4.08248,-2.38145 0.33214,-0.19928 1.35679,-0.33617 1.70103,-0.68041 0.77924,-0.77924 1.2441,-1.92452 2.04123,-2.72165 1.90291,-1.90291 4.14356,-3.48758 5.78351,-5.7835 1.519,-2.1266 2.69922,-4.38905 4.08247,-6.46392 0.18872,-0.28307 -0.10758,-0.69787 0,-1.02062 0.16038,-0.48112 0.49206,-0.88995 0.68041,-1.36082 0.23417,-0.58541 -0.19948,-1.44278 0,-2.04124 1.51241,-4.53721 -0.49283,-11.03922 -3.74227,-14.28866 -2.09073,-2.09074 -4.56507,-0.61448 -6.80412,-1.36083 -1.10375,-0.36791 -2.34478,0.0122 -3.40206,-0.3402 -1.8078,-0.6026 -3.846727,-0.34021 -5.783504,-0.34021 -1.564539,0 -8.543343,-0.49121 -9.525772,0 -0.628738,0.31437 -1.450946,0.0451 -2.04124,0.34021 -1.477465,0.73873 -3.145927,0.87153 -5.103092,1.36082 z"
       id="path1078" />
    <text
       xml:space="preserve"
       style="font-style:normal;font-variant:normal;font-weight:bold;font-stretch:normal;font-size:4.93889px;line-height:1.25;font-family:sans-serif;-inkscape-font-specification:'sans-serif Bold';text-align:center;text-anchor:middle;fill:#ffffff;fill-opacity:1;stroke:none;stroke-width:0.264583"
       x="84.185059"
       y="140.16495"
       id="text2225"><tspan
         sodipodi:role="line"
         id="tspan2223"
         style="font-style:normal;font-variant:normal;font-weight:bold;font-stretch:normal;font-size:4.93889px;font-family:sans-serif;-inkscape-font-specification:'sans-serif Bold';text-align:center;text-anchor:middle;fill:#ffffff;stroke-width:0.264583"
         x="84.185059"
         y="140.16495">Definitely</tspan><tspan
         sodipodi:role="line"
         style="font-style:normal;font-variant:normal;font-weight:bold;font-stretch:normal;font-size:4.93889px;font-family:sans-serif;-inkscape-font-specification:'sans-serif Bold';text-align:center;text-anchor:middle;fill:#ffffff;stroke-width:0.264583"
         x="84.185059"
         y="146.33856"
         id="tspan6921">in the region</tspan></text>
    <text
       xml:space="preserve"
       style="font-style:normal;font-variant:normal;font-weight:bold;font-stretch:normal;font-size:4.93889px;line-height:1.25;font-family:sans-serif;-inkscape-font-specification:'sans-serif Bold';text-align:center;text-anchor:middle;fill:#000000;fill-opacity:1;stroke:none;stroke-width:0.264583"
       x="136.04871"
       y="171.45634"
       id="text2225-1"><tspan
         sodipodi:role="line"
         id="tspan2223-0"
         style="font-style:normal;font-variant:normal;font-weight:normal;font-stretch:normal;font-size:4.93889px;font-family:sans-serif;-inkscape-font-specification:'sans-serif, Normal';font-variant-ligatures:normal;font-variant-caps:normal;font-variant-numeric:normal;font-variant-east-asian:normal;text-align:center;text-anchor:middle;fill:#000000;stroke-width:0.264583"
         x="136.04871"
         y="171.45634">Definitely not</tspan><tspan
         sodipodi:role="line"
         style="font-style:normal;font-variant:normal;font-weight:normal;font-stretch:normal;font-size:4.93889px;font-family:sans-serif;-inkscape-font-specification:'sans-serif, Normal';font-variant-ligatures:normal;font-variant-caps:normal;font-variant-numeric:normal;font-variant-east-asian:normal;text-align:center;text-anchor:middle;fill:#000000;stroke-width:0.264583"
         x="136.04871"
         y="177.62996"
         id="tspan6921-0">in the region</tspan></text>
    <text
       xml:space="preserve"
       style="font-style:normal;font-variant:normal;font-weight:bold;font-stretch:normal;font-size:4.93889px;line-height:1.25;font-family:sans-serif;-inkscape-font-specification:'sans-serif Bold';text-align:center;text-anchor:middle;fill:#000000;fill-opacity:1;stroke:none;stroke-width:0.264583"
       x="136.98918"
       y="124.99976"
       id="text2225-1-6"><tspan
         sodipodi:role="line"
         id="tspan2223-0-7"
         style="font-style:normal;font-variant:normal;font-weight:normal;font-stretch:normal;font-size:4.93889px;font-family:sans-serif;-inkscape-font-specification:'sans-serif, Normal';font-variant-ligatures:normal;font-variant-caps:normal;font-variant-numeric:normal;font-variant-east-asian:normal;text-align:center;text-anchor:middle;fill:#000000;stroke-width:0.264583"
         x="136.98918"
         y="124.99976">Possibly</tspan><tspan
         sodipodi:role="line"
         style="font-style:normal;font-variant:normal;font-weight:normal;font-stretch:normal;font-size:4.93889px;font-family:sans-serif;-inkscape-font-specification:'sans-serif, Normal';font-variant-ligatures:normal;font-variant-caps:normal;font-variant-numeric:normal;font-variant-east-asian:normal;text-align:center;text-anchor:middle;fill:#000000;stroke-width:0.264583"
         x="136.98918"
         y="131.17337"
         id="tspan6921-0-0">in the region</tspan></text>
  </g>
</svg>
